<svg width="28" height="28" viewBox="0 0 28 28" fill="none" xmlns="http://www.w3.org/2000/svg">
<path fill-rule="evenodd" clip-rule="evenodd" d="M6.68748 2.38326C8.1077 0.971103 10.4461 1.22247 11.6353 2.81098L13.1065 4.77612C14.0741 6.06865 13.9887 7.87513 12.8401 9.0172L12.5616 9.29418C12.5494 9.32952 12.5199 9.4406 12.5526 9.65171C12.6264 10.1271 13.0234 11.1356 14.69 12.7927C16.356 14.4493 17.3717 14.8459 17.8538 14.9198C18.0723 14.9534 18.1866 14.9221 18.222 14.9098L18.698 14.4365C19.7191 13.4212 21.2881 13.2314 22.5523 13.9187L24.7812 15.1303C26.6898 16.1679 27.172 18.7622 25.6083 20.317L23.951 21.9649C23.4288 22.4841 22.7266 22.9171 21.8696 22.997C19.7591 23.1937 14.8378 22.9427 9.66704 17.8012C4.83947 13.0011 3.91307 8.81509 3.79585 6.75263L4.66944 6.70298L3.79585 6.75263C3.73659 5.70973 4.22941 4.82738 4.85628 4.20406L6.68748 2.38326ZM10.2344 3.85975C9.64335 3.07021 8.54169 3.00744 7.92139 3.62421L6.09019 5.44502C5.70528 5.82774 5.52009 6.24953 5.54304 6.65333C5.63617 8.29203 6.38435 12.0693 10.901 16.5603C15.6393 21.2717 20.0157 21.4122 21.7072 21.2546C22.0528 21.2223 22.3965 21.0428 22.7171 20.724L24.3744 19.0761C25.0481 18.4062 24.8995 17.1865 23.9454 16.6678L21.7165 15.4562C21.101 15.1216 20.3799 15.232 19.9319 15.6774L19.4005 16.2058L18.7836 15.5853C19.4005 16.2058 19.3997 16.2066 19.3989 16.2074L19.3971 16.2091L19.3936 16.2126L19.386 16.2199L19.3689 16.2358C19.3567 16.247 19.3426 16.2592 19.3268 16.2724C19.2951 16.2986 19.2561 16.3283 19.2095 16.3595C19.1161 16.4221 18.9928 16.4902 18.8378 16.5479C18.5218 16.6656 18.1051 16.7289 17.5885 16.6496C16.5772 16.4945 15.2376 15.8051 13.4561 14.0337C11.6752 12.2629 10.9799 10.9295 10.8233 9.91999C10.7433 9.4038 10.8071 8.98695 10.9263 8.67072C10.9847 8.51573 11.0535 8.39251 11.1166 8.2993C11.1481 8.25281 11.1781 8.21395 11.2046 8.18239C11.2178 8.1666 11.2301 8.15262 11.2414 8.14041L11.2574 8.12339L11.2647 8.11586L11.2682 8.11233L11.2699 8.11062C11.2708 8.10979 11.2716 8.10896 11.8886 8.72944L11.2716 8.10896L11.6062 7.77624C12.1063 7.27905 12.1763 6.45369 11.7056 5.82489L10.2344 3.85975Z" fill="#7878A3"/>
</svg>
