<svg width="28" height="28" viewBox="0 0 28 28" fill="none" xmlns="http://www.w3.org/2000/svg">
<path fill-rule="evenodd" clip-rule="evenodd" d="M11.0269 3.7915H11.141C13.0104 3.79149 14.4913 3.79148 15.6629 3.92996C16.8657 4.07214 17.8558 4.37062 18.6829 5.0494C18.9635 5.27968 19.2208 5.53698 19.4511 5.81757C20.1299 6.64468 20.4284 7.63483 20.5705 8.83763C20.6025 9.10798 20.6271 9.39481 20.646 9.69908C21.563 9.24207 22.34 8.86657 22.9877 8.65464C23.7477 8.40596 24.5539 8.30559 25.2974 8.7651C26.0409 9.22462 26.3116 9.99055 26.4291 10.7815C26.5424 11.5447 26.5424 12.5499 26.5423 13.7577V14.242C26.5424 15.4497 26.5424 16.455 26.4291 17.2181C26.3116 18.0091 26.0409 18.7751 25.2974 19.2346C24.5539 19.6941 23.7477 19.5937 22.9877 19.345C22.34 19.1331 21.563 18.7576 20.646 18.3006C20.6271 18.6049 20.6025 18.8917 20.5705 19.162C20.4284 20.3648 20.1299 21.355 19.4511 22.1821C19.2208 22.4627 18.9635 22.72 18.6829 22.9503C17.8558 23.6291 16.8657 23.9275 15.6629 24.0697C14.4913 24.2082 13.0104 24.2082 11.1411 24.2082H11.0269C9.15759 24.2082 7.67669 24.2082 6.50511 24.0697C5.30231 23.9275 4.31216 23.6291 3.48506 22.9503C3.20446 22.72 2.94717 22.4627 2.71689 22.1821C2.0381 21.355 1.73962 20.3648 1.59744 19.162C1.45896 17.9905 1.45897 16.5095 1.45898 14.6402V13.3594C1.45897 11.4901 1.45896 10.0092 1.59744 8.83763C1.73962 7.63483 2.0381 6.64468 2.71689 5.81757C2.94717 5.53698 3.20446 5.27968 3.48506 5.0494C4.31216 4.37062 5.30231 4.07214 6.50511 3.92996C7.6767 3.79148 9.15761 3.79149 11.0269 3.7915ZM18.959 14.5832V13.4165C18.959 11.4774 18.9576 10.1 18.8326 9.04305C18.71 8.00547 18.4788 7.3914 18.0983 6.92776C17.9408 6.73578 17.7647 6.55973 17.5727 6.40217C17.1091 6.02168 16.495 5.79051 15.4574 5.66787C14.4005 5.54294 13.0231 5.5415 11.084 5.5415C9.14486 5.5415 7.76744 5.54294 6.71054 5.66787C5.67295 5.79051 5.05888 6.02168 4.59524 6.40217C4.40326 6.55973 4.22721 6.73578 4.06965 6.92776C3.68916 7.3914 3.45799 8.00547 3.33535 9.04305C3.21042 10.1 3.20899 11.4774 3.20899 13.4165V14.5832C3.20899 16.5223 3.21042 17.8997 3.33535 18.9566C3.45799 19.9942 3.68916 20.6083 4.06965 21.0719C4.22721 21.2639 4.40326 21.4399 4.59524 21.5975C5.05888 21.978 5.67295 22.2092 6.71054 22.3318C7.76744 22.4567 9.14486 22.4582 11.084 22.4582C13.0231 22.4582 14.4005 22.4567 15.4574 22.3318C16.495 22.2092 17.1091 21.978 17.5727 21.5975C17.7647 21.4399 17.9408 21.2639 18.0983 21.0719C18.4788 20.6083 18.71 19.9942 18.8326 18.9566C18.9576 17.8997 18.959 16.5223 18.959 14.5832ZM20.709 16.3757L20.9934 16.5179C22.1547 17.0986 22.9371 17.4872 23.5319 17.6818C24.1145 17.8724 24.2909 17.7994 24.3773 17.7459C24.4638 17.6925 24.608 17.5674 24.6981 16.9611C24.79 16.342 24.7923 15.4684 24.7923 14.17V13.8296C24.7923 12.5313 24.79 11.6577 24.6981 11.0386C24.608 10.4323 24.4638 10.3072 24.3773 10.2537C24.2909 10.2003 24.1145 10.1272 23.5319 10.3179C22.9371 10.5125 22.1547 10.9011 20.9934 11.4818L20.709 11.624V13.2607C20.709 13.2935 20.709 13.3264 20.709 13.3594V14.6402C20.709 14.6733 20.709 14.7062 20.709 14.7389V16.3757Z" fill="#7878A3"/>
</svg>
